<?xml version="1.0" encoding="utf-8"?>
<!-- Generator: Adobe Illustrator 27.4.0, SVG Export Plug-In . SVG Version: 6.00 Build 0)  -->
<svg version="1.1" id="Ebene_1" xmlns="http://www.w3.org/2000/svg" xmlns:xlink="http://www.w3.org/1999/xlink" x="0px" y="0px"
	 viewBox="0 0 40 40" style="enable-background:new 0 0 40 40;" xml:space="preserve">
<style type="text/css">
	.st0{fill:#FFFFFF;}
	.st1{fill:#FFFFFF;stroke:#545454;stroke-width:0.1;stroke-miterlimit:10;}
	.st2{fill:#878787;}
	.st3{fill:#E74310;}
</style>
<g>
	<path class="st0" d="M36.57,22.33c0,0.02,0,0.03,0,0.05c-0.01,0.05-0.01,0.1-0.02,0.16c-0.01,0.04-0.01,0.08-0.02,0.11
		c0,0,0,0.01,0,0.01c-0.01,0-0.01,0-0.02-0.01c-0.01-0.01-0.02-0.02-0.03-0.03c-0.03-0.02-0.05-0.05-0.08-0.07
		c-0.01-0.01-0.02-0.02-0.02-0.04c0-0.04,0-0.08,0-0.12c0-0.03,0-0.06,0-0.09c0-0.01,0-0.02,0-0.03c0-0.01,0-0.02,0.01-0.02
		c0.01,0,0.01,0,0.02,0c0.05,0.02,0.11,0.04,0.16,0.06C36.57,22.32,36.58,22.32,36.57,22.33 M36.74,22.37
		c-0.01,0.01-0.01,0.02-0.02,0.01c-0.03-0.02-0.06-0.04-0.09-0.06c-0.01,0-0.01-0.01-0.01-0.02c0-0.01,0-0.02,0.01-0.04
		c0.01,0,0.01,0,0.02,0.01c0.03,0.02,0.06,0.04,0.09,0.06c0,0,0.01,0.01,0.01,0.01C36.74,22.35,36.74,22.36,36.74,22.37 M37,22.48
		c-0.01,0.02-0.02,0.04-0.02,0.06c-0.01,0.03-0.02,0.05-0.03,0.08c0,0.01,0,0.01-0.01,0.02c-0.01-0.02-0.02-0.03-0.03-0.05
		c-0.03-0.05-0.07-0.11-0.1-0.16c-0.01-0.02-0.02-0.04-0.03-0.06c0-0.02,0-0.03,0-0.05c0-0.04-0.01-0.08-0.01-0.12
		c0-0.01,0-0.01,0-0.02c0-0.01,0-0.01,0.01-0.01c0.01,0,0.01,0,0.02,0.01c0.03,0.02,0.06,0.04,0.09,0.07
		c0.02,0.02,0.03,0.04,0.05,0.06c0.02,0.02,0.04,0.05,0.05,0.07c0.01,0.02,0.02,0.03,0.02,0.05C37.01,22.45,37,22.47,37,22.48
		 M37.19,22.45c0,0.01-0.01,0.02-0.01,0.03c0,0.03-0.02,0.04-0.05,0.03c-0.03-0.01-0.05-0.03-0.08-0.05c0,0-0.01-0.01-0.01-0.01
		c-0.02-0.01-0.02-0.02-0.02-0.04c0-0.02,0-0.03,0-0.05c0-0.04,0-0.07,0.01-0.11c0-0.02,0.01-0.04,0.01-0.06c0-0.02,0-0.03,0-0.05
		c0-0.01,0-0.02,0-0.03c0.01-0.03,0.01-0.06,0.02-0.08c0.01-0.04,0.03-0.09,0.04-0.13c0-0.01,0-0.01,0.01-0.02
		c0-0.01,0.01-0.01,0.01-0.02c0.01,0.01,0.01,0.01,0.01,0.02c0.01,0.04,0.01,0.08,0.02,0.11c0.01,0.04,0.02,0.08,0.02,0.11
		c0,0.03,0.01,0.06,0.01,0.09c0,0.05,0,0.1,0.01,0.15c0,0.02,0,0.05,0,0.07c0,0.01,0,0.02,0.01,0.03
		C37.19,22.44,37.19,22.44,37.19,22.45"/>
	<g>
		<path class="st1" d="M37.93,20.43h-6.62c0.06-0.97-0.05-1.89-0.05-1.89c-0.84-0.2-1.5-0.38-1.5-0.38
			c-0.2-1.09-0.51-1.84-0.51-1.84c0.52-0.37,1.12-1.13,1.12-1.13c-0.49-1.04-1.3-2.26-1.3-2.26c-0.45,0.11-1.52,0.41-1.52,0.41
			c-0.4-0.52-1.36-1.34-1.36-1.34c0.28-0.8,0.41-1.53,0.41-1.53c-0.86-0.72-2.25-1.3-2.25-1.3c-0.46,0.4-1.09,1.11-1.09,1.11
			c-0.85-0.31-1.93-0.53-1.93-0.53c-0.09-0.58-0.37-1.47-0.37-1.47c-0.83-0.04-2.63,0-2.63,0c-0.17,0.67-0.36,1.49-0.36,1.49
			c-1.01,0.2-1.9,0.51-1.9,0.51C15.34,9.53,15,9.19,15,9.19c-1.04,0.42-2.3,1.36-2.3,1.36c0.13,0.59,0.43,1.44,0.43,1.44
			c-0.51,0.38-1.39,1.37-1.39,1.37l-1.41-0.41c-0.88,1.25-1.34,2.34-1.34,2.34c0.4,0.42,1.03,1.01,1.03,1.01
			c-0.18,0.49-0.49,1.89-0.49,1.89l-1.38,0.34c0,0-0.16,1.34-0.07,1.9H2.07c-0.54,0-0.97,0.43-0.97,0.97v6.5
			c0,0.54,0.43,0.97,0.97,0.97h7.76v1.91c0,0.53,0.43,0.97,0.97,0.97h21.62c0.53,0,0.97-0.43,0.97-0.97v-1.91h4.55
			c0.53,0,0.97-0.43,0.97-0.97v-6.5C38.9,20.86,38.47,20.43,37.93,20.43"/>
	</g>
	<polygon class="st2" points="19.94,14.5 27.41,14.5 27.41,16.16 22.09,16.16 22.09,17.49 27.15,17.49 27.15,19.12 22.09,19.12 
		22.09,21.56 19.94,21.56 	"/>
	<polygon class="st3" points="19.15,21.56 16.99,21.56 16.99,19.12 11.94,19.12 11.94,17.49 16.99,17.49 16.99,16.16 11.68,16.16 
		11.68,14.5 19.15,14.5 	"/>
	<polygon class="st3" points="4.46,22.65 8.55,22.65 8.55,23.56 5.64,23.56 5.64,24.29 8.41,24.29 8.41,25.18 5.64,25.18 
		5.64,26.52 4.46,26.52 	"/>
	<rect x="8.82" y="22.65" class="st3" width="1.24" height="3.87"/>
	<polygon class="st3" points="10.33,22.65 15.02,22.65 15.02,23.64 13.3,23.64 13.3,26.52 12.06,26.52 12.06,23.64 10.33,23.64 	"/>
	<polygon class="st3" points="15.29,22.65 17.36,22.65 19.39,25.54 19.51,25.54 19.48,22.65 20.68,22.65 20.68,26.52 18.63,26.52 
		16.6,23.63 16.47,23.63 16.49,26.52 15.29,26.52 	"/>
	<polygon class="st3" points="21.23,22.65 25.52,22.65 25.52,23.56 22.39,23.56 22.39,24.12 25.36,24.12 25.36,24.97 22.39,24.97 
		22.39,25.59 25.54,25.59 25.54,26.52 21.23,26.52 	"/>
	<path class="st3" d="M25.77,25.24h1.14c0,0.19,0.04,0.31,0.12,0.37c0.06,0.04,0.13,0.06,0.22,0.06c0.09,0.01,0.37,0.01,0.85,0.02
		c0.5,0,0.8-0.01,0.9-0.01c0.1-0.01,0.18-0.02,0.24-0.04c0.09-0.04,0.13-0.13,0.13-0.29c0-0.12-0.03-0.19-0.09-0.23
		c-0.06-0.04-0.19-0.06-0.38-0.06c-0.15,0-0.45-0.01-0.92-0.03c-0.48-0.02-0.8-0.04-0.94-0.04c-0.28-0.01-0.5-0.04-0.65-0.08
		c-0.15-0.04-0.27-0.12-0.36-0.22c-0.15-0.17-0.22-0.44-0.22-0.83c0-0.44,0.08-0.75,0.25-0.93c0.13-0.14,0.32-0.23,0.58-0.27
		c0.26-0.04,0.8-0.06,1.6-0.06c0.57,0,0.97,0.02,1.2,0.05c0.36,0.05,0.6,0.15,0.73,0.3c0.13,0.15,0.2,0.4,0.2,0.75
		c0,0.03,0,0.09,0,0.18h-1.14c0-0.11-0.01-0.18-0.03-0.22c-0.01-0.04-0.04-0.07-0.08-0.1c-0.05-0.03-0.14-0.05-0.27-0.06
		c-0.13-0.01-0.4-0.01-0.82-0.01c-0.5,0-0.81,0.02-0.92,0.05c-0.11,0.03-0.16,0.12-0.16,0.26c0,0.14,0.05,0.22,0.16,0.25
		c0.09,0.02,0.51,0.05,1.25,0.07c0.63,0.02,1.05,0.04,1.26,0.07c0.21,0.03,0.38,0.07,0.5,0.15c0.14,0.09,0.24,0.2,0.3,0.35
		c0.06,0.15,0.09,0.36,0.09,0.64c0,0.36-0.05,0.64-0.15,0.81c-0.07,0.13-0.18,0.23-0.31,0.29c-0.13,0.06-0.32,0.11-0.55,0.13
		c-0.26,0.02-0.73,0.03-1.43,0.03c-0.58,0-1.01-0.01-1.29-0.05c-0.28-0.03-0.49-0.08-0.63-0.16c-0.15-0.08-0.25-0.19-0.3-0.33
		c-0.06-0.14-0.08-0.34-0.08-0.62V25.24z"/>
	<path class="st3" d="M30.79,25.24h1.14c0,0.19,0.04,0.31,0.12,0.37c0.06,0.04,0.13,0.06,0.22,0.06c0.09,0.01,0.37,0.01,0.85,0.02
		c0.5,0,0.8-0.01,0.9-0.01c0.1-0.01,0.18-0.02,0.24-0.04c0.09-0.04,0.13-0.13,0.13-0.29c0-0.12-0.03-0.19-0.09-0.23
		c-0.06-0.04-0.19-0.06-0.38-0.06c-0.15,0-0.45-0.01-0.92-0.03c-0.48-0.02-0.8-0.04-0.94-0.04c-0.28-0.01-0.5-0.04-0.65-0.08
		c-0.15-0.04-0.27-0.12-0.36-0.22c-0.15-0.17-0.22-0.44-0.22-0.83c0-0.44,0.08-0.75,0.25-0.93c0.13-0.14,0.32-0.23,0.58-0.27
		c0.26-0.04,0.8-0.06,1.6-0.06c0.57,0,0.97,0.02,1.2,0.05c0.36,0.05,0.6,0.15,0.73,0.3c0.13,0.15,0.2,0.4,0.2,0.75
		c0,0.03,0,0.09,0,0.18h-1.14c0-0.11-0.01-0.18-0.03-0.22c-0.01-0.04-0.04-0.07-0.08-0.1c-0.05-0.03-0.14-0.05-0.27-0.06
		c-0.13-0.01-0.4-0.01-0.82-0.01c-0.5,0-0.81,0.02-0.92,0.05c-0.11,0.03-0.16,0.12-0.16,0.26c0,0.14,0.06,0.22,0.16,0.25
		c0.09,0.02,0.51,0.05,1.25,0.07c0.63,0.02,1.04,0.04,1.26,0.07c0.21,0.03,0.38,0.07,0.5,0.15c0.14,0.09,0.24,0.2,0.3,0.35
		c0.06,0.15,0.09,0.36,0.09,0.64c0,0.36-0.05,0.64-0.15,0.81c-0.07,0.13-0.18,0.23-0.31,0.29c-0.13,0.06-0.32,0.11-0.56,0.13
		c-0.26,0.02-0.73,0.03-1.43,0.03c-0.58,0-1.01-0.01-1.29-0.05c-0.28-0.03-0.49-0.08-0.63-0.16c-0.15-0.08-0.25-0.19-0.3-0.33
		c-0.06-0.14-0.08-0.34-0.08-0.62V25.24z"/>
	<polygon class="st2" points="11.9,27.47 14.89,27.47 14.89,28.14 12.76,28.14 12.76,28.67 14.79,28.67 14.79,29.32 12.76,29.32 
		12.76,30.3 11.9,30.3 	"/>
	<path class="st2" d="M18.03,30.3l-0.24-0.48h-1.87l-0.24,0.48h-0.98l1.5-2.83h1.34L19,30.3H18.03z M17.48,29.2l-0.54-1.07h-0.17
		l-0.55,1.07H17.48z"/>
	<path class="st2" d="M19.13,30.3v-2.83h2.03c0.43,0,0.69,0,0.77,0.01c0.19,0.01,0.32,0.04,0.41,0.1c0.08,0.05,0.14,0.13,0.18,0.23
		c0.04,0.1,0.06,0.23,0.06,0.4c0,0.2-0.03,0.35-0.08,0.45c-0.06,0.09-0.15,0.16-0.3,0.21c0.13,0.02,0.22,0.05,0.28,0.1
		c0.14,0.09,0.21,0.29,0.21,0.58c0,0.23-0.04,0.4-0.11,0.51c-0.05,0.08-0.11,0.13-0.2,0.16c-0.08,0.04-0.2,0.06-0.35,0.07
		c-0.1,0.01-0.39,0.01-0.86,0.01H19.13z M19.95,28.59h1.21c0.27,0,0.43-0.01,0.48-0.03c0.07-0.03,0.1-0.09,0.1-0.2
		c0-0.11-0.04-0.18-0.12-0.2c-0.03-0.01-0.18-0.01-0.46-0.01h-1.21V28.59z M19.95,29.62h1.22c0.25,0,0.4,0,0.45-0.01
		c0.05,0,0.09-0.01,0.12-0.02c0.07-0.03,0.11-0.1,0.11-0.22c0-0.12-0.04-0.19-0.13-0.21c-0.03-0.01-0.21-0.01-0.55-0.01h-1.22V29.62
		z"/>
	<path class="st2" d="M22.98,30.3v-2.83h2.08c0.49,0,0.78,0.01,0.88,0.02c0.1,0.01,0.19,0.04,0.28,0.1
		c0.11,0.07,0.18,0.15,0.22,0.27c0.04,0.11,0.06,0.29,0.06,0.54c0,0.21-0.01,0.36-0.04,0.45c-0.03,0.1-0.07,0.17-0.14,0.23
		c-0.08,0.06-0.19,0.1-0.34,0.13c0.18,0.01,0.31,0.06,0.39,0.15c0.05,0.05,0.07,0.12,0.09,0.2c0.01,0.08,0.02,0.24,0.02,0.48v0.26
		h-0.85v-0.15c0-0.16-0.01-0.27-0.02-0.34c-0.01-0.07-0.03-0.12-0.07-0.15c-0.03-0.03-0.08-0.05-0.13-0.06
		c-0.06-0.01-0.17-0.01-0.35-0.01h-1.21v0.72H22.98z M23.84,28.87h1.21c0.21,0,0.34-0.01,0.38-0.01c0.04,0,0.08-0.01,0.1-0.03
		c0.04-0.02,0.06-0.06,0.08-0.1c0.01-0.05,0.02-0.12,0.02-0.21c0-0.09-0.01-0.16-0.03-0.21c-0.02-0.05-0.05-0.08-0.09-0.1
		c-0.03-0.01-0.07-0.02-0.11-0.02c-0.04,0-0.16,0-0.36-0.01h-1.21V28.87z"/>
	<rect x="26.8" y="27.47" class="st2" width="0.91" height="2.83"/>
	<polygon class="st2" points="28.1,27.47 28.96,27.47 28.96,28.5 29.44,28.5 30.56,27.45 31.87,27.45 30.24,28.86 32.01,30.3 
		30.7,30.3 29.44,29.22 28.96,29.22 28.96,30.3 28.1,30.3 	"/>
	<path class="st3" d="M37.22,20.98H22.95v0.56h13.92c0.54,0,0.68,0.13,0.68,0.68v4.56c0,0.55-0.13,0.68-0.68,0.68h-4.34v0.58h4.69
		c0.54,0,0.98-0.44,0.98-0.98v-5.09C38.21,21.42,37.77,20.98,37.22,20.98"/>
	<path class="st3" d="M2.39,26.78v-4.56c0-0.55,0.13-0.68,0.67-0.68h13.21v-0.56H2.7c-0.54,0-0.98,0.44-0.98,0.98v5.09
		c0,0.54,0.44,0.98,0.98,0.98h8.47v-0.58H3.06C2.52,27.46,2.39,27.32,2.39,26.78"/>
</g>
</svg>
